<svg class="diagram-root" style="background: #f5f6f6" xmlns="http://www.w3.org/2000/svg" xmlns:xlink="http://www.w3.org/1999/xlink"><style>.diagram-root { font-family: "Helvetica Neue", sans-serif; font-size: 12px; } .t { overflow: visible; } .t-bg { y: 40; fill: #fff;   } .th { fill: #005aa0;   } .tht { fill: #fff; font-size: 14px;  } .tf { fill: #323c46; overflow: visible; } .tf.pk { fill: #005aa0; font-weight: bold; } .tf.fk { font-weight: bold; } .ty { fill: #adb1b5; font-weight: normal; text-anchor: end; } .r { fill: transparent; stroke: #c3c3c3; stroke-width: 1; } .l { stroke: 1; } .i { fill: #c2c7ce; stroke: #c2c7ce; } .i.ix { fill: #afb3b6; stroke: #000; } .fa { fill: transparent; overflow: visible; } .fa .bg.hover { fill: #f7f7f7; } .c { cy: 12; r: 4; stroke: #d2d2dc; fill: #d2d2dc; } .hr { fill: transparent; stroke: #323c46; stroke-opacity: 0.035; stroke-width: 13; } .dc { stroke: #fa5a3c; fill: #fa5a3c; } .x { stroke: white; stroke-width: 1; } .hl .th { fill: #1b9bff; } .hl .tht {  } .fhl .bg { fill: #e7f4ff; } .fhls .bg {  } .r.hl { stroke: #1b9bff; } .dim { opacity: 0.25; }</style><g class="drawing-wrapper" transform="translate(2, 18) scale(1,1)"><g class="rs"><path d="M 1261.1 713 m -1, 0 a 1,1 0 1,0 2,0 a 1,1 0 1,0 -2,0 M 1261.1 713 m -0.5, 0 a 0.5,0.5 0 1,0 1,0 a 0.5,0.5 0 1,0 -1,0  M1261.1 713 L1261.1 713 1273.1 713 M 1261.1 719 m -1, 0 a 1,1 0 1,0 2,0 a 1,1 0 1,0 -2,0 M 1261.1 719 m -0.5, 0 a 0.5,0.5 0 1,0 1,0 a 0.5,0.5 0 1,0 -1,0  M1261.1 719 L1261.1 719 1268.1 713 1261.1 707 M 1261.1 707 m -1, 0 a 1,1 0 1,0 2,0 a 1,1 0 1,0 -2,0 M 1261.1 707 m -0.5, 0 a 0.5,0.5 0 1,0 1,0 a 0.5,0.5 0 1,0 -1,0  M1273.1 713 C 1323.1 713, 1413.9279999999999 497, 1121.72 497 M 1109.72 497 m -1, 0 a 1,1 0 1,0 2,0 a 1,1 0 1,0 -2,0 M 1109.72 497 m -0.5, 0 a 0.5,0.5 0 1,0 1,0 a 0.5,0.5 0 1,0 -1,0  M1109.72 497 L1109.72 497 1121.72 497 M1115.72 503 L1115.72 503 1115.72 491" id="h3289739540" class="r"></path><path d="M 813 343 m -1, 0 a 1,1 0 1,0 2,0 a 1,1 0 1,0 -2,0 M 813 343 m -0.5, 0 a 0.5,0.5 0 1,0 1,0 a 0.5,0.5 0 1,0 -1,0  M813 343 L813 343 801 343 M807 349 L807 349 807 337 M801 343 Q 779.6 343, 758.19 344.5 T 715.38 346 M 703.38 346 m -1, 0 a 1,1 0 1,0 2,0 a 1,1 0 1,0 -2,0 M 703.38 346 m -0.5, 0 a 0.5,0.5 0 1,0 1,0 a 0.5,0.5 0 1,0 -1,0  M703.38 346 L703.38 346 715.38 346 M709.38 352 L709.38 352 709.38 340" id="h1997710419" class="r"></path><path d="M 813 368 m -1, 0 a 1,1 0 1,0 2,0 a 1,1 0 1,0 -2,0 M 813 368 m -0.5, 0 a 0.5,0.5 0 1,0 1,0 a 0.5,0.5 0 1,0 -1,0  M813 368 L813 368 801 368 M 813 374 m -1, 0 a 1,1 0 1,0 2,0 a 1,1 0 1,0 -2,0 M 813 374 m -0.5, 0 a 0.5,0.5 0 1,0 1,0 a 0.5,0.5 0 1,0 -1,0  M813 374 L813 374 806 368 813 362 M 813 362 m -1, 0 a 1,1 0 1,0 2,0 a 1,1 0 1,0 -2,0 M 813 362 m -0.5, 0 a 0.5,0.5 0 1,0 1,0 a 0.5,0.5 0 1,0 -1,0  M801 368 C 751 368, 681.4 497, 917 497 M 929 497 m -1, 0 a 1,1 0 1,0 2,0 a 1,1 0 1,0 -2,0 M 929 497 m -0.5, 0 a 0.5,0.5 0 1,0 1,0 a 0.5,0.5 0 1,0 -1,0  M929 497 L929 497 917 497 M923 503 L923 503 923 491" id="h299408119" class="r"></path><path d="M 532 396 m -1, 0 a 1,1 0 1,0 2,0 a 1,1 0 1,0 -2,0 M 532 396 m -0.5, 0 a 0.5,0.5 0 1,0 1,0 a 0.5,0.5 0 1,0 -1,0  M532 396 L532 396 520 396 M526 402 L526 402 526 390 M520 396 Q 445.68 396, 371.36 241.5 T 222.72 87 M 210.72 87 m -1, 0 a 1,1 0 1,0 2,0 a 1,1 0 1,0 -2,0 M 210.72 87 m -0.5, 0 a 0.5,0.5 0 1,0 1,0 a 0.5,0.5 0 1,0 -1,0  M210.72 87 L210.72 87 222.72 87 M216.72 93 L216.72 93 216.72 81" id="h3222089952" class="r"></path><path d="M 532 421 m -1, 0 a 1,1 0 1,0 2,0 a 1,1 0 1,0 -2,0 M 532 421 m -0.5, 0 a 0.5,0.5 0 1,0 1,0 a 0.5,0.5 0 1,0 -1,0  M532 421 L532 421 520 421 M526 427 L526 427 526 415 M520 421 Q 445.68 421, 371.36 354 T 222.72 287 M 210.72 287 m -1, 0 a 1,1 0 1,0 2,0 a 1,1 0 1,0 -2,0 M 210.72 287 m -0.5, 0 a 0.5,0.5 0 1,0 1,0 a 0.5,0.5 0 1,0 -1,0  M210.72 287 L210.72 287 222.72 287 M216.72 293 L216.72 293 216.72 281" id="h4016343389" class="r"></path><path d="M 532 446 m -1, 0 a 1,1 0 1,0 2,0 a 1,1 0 1,0 -2,0 M 532 446 m -0.5, 0 a 0.5,0.5 0 1,0 1,0 a 0.5,0.5 0 1,0 -1,0  M532 446 L532 446 520 446 M526 452 L526 452 526 440 M520 446 Q 446.68 446, 373.36 474 T 226.72 502 M 214.72 502 m -1, 0 a 1,1 0 1,0 2,0 a 1,1 0 1,0 -2,0 M 214.72 502 m -0.5, 0 a 0.5,0.5 0 1,0 1,0 a 0.5,0.5 0 1,0 -1,0  M214.72 502 L214.72 502 226.72 502 M220.72 508 L220.72 508 220.72 496" id="h2323816552" class="r"></path></g><g class="hrs"></g><g class="ts"><svg width="180.72" height="150" x="30" y="30" id="h2579401028" class="t"><rect height="40" width="180.72" class="th"></rect><text x="13" y="25" class="tht">Motor</text><rect height="110" width="180.72" class="t-bg"></rect><text x="13" y="61" class="tf pk">Id<tspan x="167.72" class="ty">int</tspan></text><path d="M7,14A2,2 0 0,1 5,12A2,2 0 0,1 7,10A2,2 0 0,1 9,12A2,2 0 0,1 7,14M12.65,10C11.83,7.67 9.61,6 7, 6A6, 6 0 0, 0 1, 12A6, 6 0 0, 0 7, 18C9.61, 18 11.83, 16.33 12.65, 14H17V18H21V14H23V10H12.65Z" class="i pk" transform="translate(135.046171875, 48) scale(0.65)"></path><text x="13" y="86" class="tf">Value<tspan x="167.72" class="ty">nvarchar(50)</tspan></text><text x="13" y="111" class="tf">Description<tspan x="167.72" class="ty">nvarchar(200)</tspan></text><text x="13" y="136" class="tf">Price<tspan x="167.72" class="ty">decimal(19,4)</tspan></text></svg><svg width="180.72" height="150" x="30" y="230" id="h1883799037" class="t"><rect height="40" width="180.72" class="th"></rect><text x="13" y="25" class="tht">Lackierung</text><rect height="110" width="180.72" class="t-bg"></rect><text x="13" y="61" class="tf pk">Id<tspan x="167.72" class="ty">int</tspan></text><path d="M7,14A2,2 0 0,1 5,12A2,2 0 0,1 7,10A2,2 0 0,1 9,12A2,2 0 0,1 7,14M12.65,10C11.83,7.67 9.61,6 7, 6A6, 6 0 0, 0 1, 12A6, 6 0 0, 0 7, 18C9.61, 18 11.83, 16.33 12.65, 14H17V18H21V14H23V10H12.65Z" class="i pk" transform="translate(135.046171875, 48) scale(0.65)"></path><text x="13" y="86" class="tf">Value<tspan x="167.72" class="ty">nvarchar(50)</tspan></text><text x="13" y="111" class="tf">Description<tspan x="167.72" class="ty">nvarchar(200)</tspan></text><text x="13" y="136" class="tf">Price<tspan x="167.72" class="ty">decimal(19,4)</tspan></text></svg><svg width="180.72" height="150" x="34" y="445" id="h1949954192" class="t"><rect height="40" width="180.72" class="th"></rect><text x="13" y="25" class="tht">Felgen</text><rect height="110" width="180.72" class="t-bg"></rect><text x="13" y="61" class="tf pk">Id<tspan x="167.72" class="ty">int</tspan></text><path d="M7,14A2,2 0 0,1 5,12A2,2 0 0,1 7,10A2,2 0 0,1 9,12A2,2 0 0,1 7,14M12.65,10C11.83,7.67 9.61,6 7, 6A6, 6 0 0, 0 1, 12A6, 6 0 0, 0 7, 18C9.61, 18 11.83, 16.33 12.65, 14H17V18H21V14H23V10H12.65Z" class="i pk" transform="translate(135.046171875, 48) scale(0.65)"></path><text x="13" y="86" class="tf">Value<tspan x="167.72" class="ty">nvarchar(50)</tspan></text><text x="13" y="111" class="tf">Description<tspan x="167.72" class="ty">nvarchar(200)</tspan></text><text x="13" y="136" class="tf">Price<tspan x="167.72" class="ty">decimal(19,4)</tspan></text></svg><svg width="180.72" height="150" x="929" y="440" id="h1399470831" class="t"><rect height="40" width="180.72" class="th"></rect><text x="13" y="25" class="tht">Sonderausstattung</text><rect height="110" width="180.72" class="t-bg"></rect><text x="13" y="61" class="tf pk">Id<tspan x="167.72" class="ty">int</tspan></text><path d="M7,14A2,2 0 0,1 5,12A2,2 0 0,1 7,10A2,2 0 0,1 9,12A2,2 0 0,1 7,14M12.65,10C11.83,7.67 9.61,6 7, 6A6, 6 0 0, 0 1, 12A6, 6 0 0, 0 7, 18C9.61, 18 11.83, 16.33 12.65, 14H17V18H21V14H23V10H12.65Z" class="i pk" transform="translate(135.046171875, 48) scale(0.65)"></path><text x="13" y="86" class="tf">Value<tspan x="167.72" class="ty">nvarchar(50)</tspan></text><text x="13" y="111" class="tf">Description<tspan x="167.72" class="ty">nvarchar(200)</tspan></text><text x="13" y="136" class="tf">Price<tspan x="167.72" class="ty">decimal(19,4)</tspan></text></svg><svg width="176.1" height="125" x="1085" y="631" id="h2522395303" class="t"><rect height="40" width="176.1" class="th"></rect><text x="13" y="25" class="tht">Exclusion</text><rect height="85" width="176.1" class="t-bg"></rect><text x="13" y="61" class="tf pk">Id<tspan x="163.1" class="ty">int</tspan></text><path d="M7,14A2,2 0 0,1 5,12A2,2 0 0,1 7,10A2,2 0 0,1 9,12A2,2 0 0,1 7,14M12.65,10C11.83,7.67 9.61,6 7, 6A6, 6 0 0, 0 1, 12A6, 6 0 0, 0 7, 18C9.61, 18 11.83, 16.33 12.65, 14H17V18H21V14H23V10H12.65Z" class="i pk" transform="translate(130.426171875, 48) scale(0.65)"></path><text x="13" y="86" class="tf fk">Sonderausstattung_Id<tspan x="163.1" class="ty">int</tspan></text><text x="13" y="111" class="tf">Exclusion_Id<tspan x="163.1" class="ty">int</tspan></text></svg><svg width="176.1" height="125" x="813" y="261" id="h2829344418" class="t"><rect height="40" width="176.1" class="th"></rect><text x="13" y="25" class="tht">Ausstattung</text><rect height="85" width="176.1" class="t-bg"></rect><text x="13" y="61" class="tf pk">Id<tspan x="163.1" class="ty">int</tspan></text><path d="M7,14A2,2 0 0,1 5,12A2,2 0 0,1 7,10A2,2 0 0,1 9,12A2,2 0 0,1 7,14M12.65,10C11.83,7.67 9.61,6 7, 6A6, 6 0 0, 0 1, 12A6, 6 0 0, 0 7, 18C9.61, 18 11.83, 16.33 12.65, 14H17V18H21V14H23V10H12.65Z" class="i pk" transform="translate(130.426171875, 48) scale(0.65)"></path><text x="13" y="86" class="tf fk">AuftragId<tspan x="163.1" class="ty">int</tspan></text><text x="13" y="111" class="tf fk">Sonderausstattung_Id<tspan x="163.1" class="ty">int</tspan></text></svg><svg width="171.38" height="225" x="532" y="289" id="h4091078552" class="t"><rect height="40" width="171.38" class="th"></rect><text x="13" y="25" class="tht">Auftrag</text><rect height="185" width="171.38" class="t-bg"></rect><text x="13" y="61" class="tf pk">Id<tspan x="158.38" class="ty">int</tspan></text><path d="M7,14A2,2 0 0,1 5,12A2,2 0 0,1 7,10A2,2 0 0,1 9,12A2,2 0 0,1 7,14M12.65,10C11.83,7.67 9.61,6 7, 6A6, 6 0 0, 0 1, 12A6, 6 0 0, 0 7, 18C9.61, 18 11.83, 16.33 12.65, 14H17V18H21V14H23V10H12.65Z" class="i pk" transform="translate(125.706171875, 48) scale(0.65)"></path><text x="13" y="86" class="tf">Guid<tspan x="158.38" class="ty">varchar(32)</tspan></text><text x="13" y="111" class="tf fk">Id_Motor<tspan x="158.38" class="ty">int</tspan></text><text x="13" y="136" class="tf fk">Id_Lackierung<tspan x="158.38" class="ty">int</tspan></text><text x="13" y="161" class="tf fk">Id_Felgen<tspan x="158.38" class="ty">int</tspan></text><text x="13" y="186" class="tf">OrderDate<tspan x="158.38" class="ty">DateTime</tspan></text><text x="13" y="211" class="tf">TotalPrice<tspan x="158.38" class="ty">decimal(19,4)</tspan></text></svg></g></g><text class="qdbd-link" x="10" y="20">www.quickdatabasediagrams.com</text></svg>